<?xml version="1.0" encoding="UTF-8" standalone="no"?>
<!DOCTYPE svg PUBLIC "-//W3C//DTD SVG 1.1//EN"
 "http://www.w3.org/Graphics/SVG/1.1/DTD/svg11.dtd">
<!-- Generated by graphviz version 2.40.1 (20161225.0304)
 -->
<!-- Title: G Pages: 1 -->
<svg width="98pt" height="67pt"
 viewBox="0.00 0.00 98.11 67.30" xmlns="http://www.w3.org/2000/svg" xmlns:xlink="http://www.w3.org/1999/xlink">
<g id="graph0" class="graph" transform="scale(1 1) rotate(0) translate(21.6 45.6986)">
<title>G</title>
<polygon fill="#111111" stroke="transparent" points="-21.6,21.6 -21.6,-45.6986 76.5102,-45.6986 76.5102,21.6 -21.6,21.6"/>
<!-- App.js -->
<g id="node1" class="node">
<title>App.js</title>
<path fill="none" stroke="#cfffac" d="M46.7994,-24.1482C46.7994,-24.1482 8.1107,-24.1482 8.1107,-24.1482 4.0778,-24.1482 .0448,-20.1152 .0448,-16.0823 .0448,-16.0823 .0448,-8.0164 .0448,-8.0164 .0448,-3.9834 4.0778,.0495 8.1107,.0495 8.1107,.0495 46.7994,.0495 46.7994,.0495 50.8324,.0495 54.8653,-3.9834 54.8653,-8.0164 54.8653,-8.0164 54.8653,-16.0823 54.8653,-16.0823 54.8653,-20.1152 50.8324,-24.1482 46.7994,-24.1482"/>
<text text-anchor="middle" x="27.4551" y="-8.8986" font-family="Arial" font-size="14.00" fill="#cfffac">App.js</text>
</g>
</g>
</svg>
